<?xml version="1.0" standalone="no"?>
<!DOCTYPE svg PUBLIC "-//W3C//DTD SVG 20010904//EN"
 "http://www.w3.org/TR/2001/REC-SVG-20010904/DTD/svg10.dtd">
<svg version="1.0" xmlns="http://www.w3.org/2000/svg"
 width="4000.000000pt" height="3000.000000pt" viewBox="0 0 4000.000000 3000.000000"
 preserveAspectRatio="xMidYMid meet">

<g transform="translate(0.000000,3000.000000) scale(0.100000,-0.100000)"
fill="#000000" stroke="none">
<path d="M19310 23288 l0 -964 2047 -1789 c1126 -985 2730 -2388 3566 -3118
836 -731 1515 -1332 1511 -1337 -5 -4 -342 -171 -748 -371 l-740 -364 1131 -3
c622 -1 1643 -1 2269 0 l1137 3 -2569 2251 c-6700 5870 -7582 6642 -7593 6648
-8 5 -11 -239 -11 -956z"/>
<path d="M19555 18055 c115 -69 219 -151 337 -264 366 -351 626 -817 778
-1398 l11 -43 1102 0 c911 0 1111 -3 1154 -14 205 -55 323 -212 323 -431 0
-282 -69 -415 -250 -481 -41 -14 -156 -16 -1198 -14 l-1154 1 8 -33 c13 -59 7
-339 -10 -450 -52 -337 -189 -649 -406 -922 -33 -41 -60 -78 -60 -81 0 -3 614
-5 1364 -5 1016 1 1375 -2 1407 -10 189 -51 292 -188 306 -406 18 -282 -108
-483 -349 -559 l-80 -25 -1480 0 c-1252 0 -1478 -2 -1471 -14 4 -7 289 -403
633 -880 l625 -866 970 0 c602 0 1003 4 1055 10 251 31 497 105 719 217 188
94 308 180 451 323 139 139 228 262 314 435 156 311 218 609 220 1050 1 302
-20 457 -95 692 -92 287 -268 540 -479 689 -66 47 -253 143 -280 144 -8 1 17
17 55 37 266 136 466 430 570 839 45 174 72 366 86 602 34 566 -92 972 -401
1296 -285 299 -681 485 -1222 573 -93 16 -267 17 -1858 20 l-1755 4 60 -36z"/>
<path d="M13740 13857 l0 -2727 1711 0 c1365 0 1710 3 1706 13 -4 11 -3405
5427 -3413 5436 -2 2 -4 -1223 -4 -2722z"/>
<path d="M10280 8861 l0 -831 215 0 215 0 0 326 0 327 93 -6 c111 -7 154 -23
201 -78 35 -42 37 -48 201 -556 3 -10 59 -13 235 -13 126 0 230 2 230 3 0 8
-202 565 -222 612 -33 80 -88 156 -135 186 l-44 27 38 12 c184 60 283 196 283
390 0 213 -110 339 -352 402 -77 20 -113 21 -520 25 l-438 5 0 -831z m693 514
c114 -24 167 -71 182 -161 14 -91 -44 -188 -130 -214 -22 -7 -102 -15 -177
-17 l-138 -5 0 206 0 206 98 0 c53 0 128 -7 165 -15z"/>
<path d="M11840 9228 c1 -644 10 -748 84 -903 46 -97 102 -164 183 -218 129
-85 299 -124 502 -114 342 17 534 154 622 447 23 74 23 85 27 663 l3 587 -210
0 -210 0 -3 -562 c-3 -560 -3 -563 -26 -619 -48 -121 -114 -174 -225 -186
-112 -11 -204 33 -248 120 -45 87 -49 140 -49 710 l0 537 -225 0 -225 0 0
-462z"/>
<path d="M13580 8860 l0 -830 196 0 196 0 -4 690 c-3 670 -3 687 14 617 10
-40 104 -350 210 -690 l192 -617 200 2 200 3 193 615 c107 338 204 653 216
700 l22 85 -3 -702 -3 -703 210 0 211 0 0 830 0 830 -336 -2 -336 -3 -119
-385 c-184 -597 -199 -651 -219 -767 -10 -59 -18 -94 -19 -77 -3 90 -46 255
-188 721 l-156 513 -339 0 -338 0 0 -830z m377 568 c-3 -8 -6 -5 -6 6 -1 11 2
17 5 13 3 -3 4 -12 1 -19z"/>
<path d="M16369 9663 c-6 -16 -145 -381 -309 -813 -164 -432 -301 -793 -305
-802 -7 -17 7 -18 213 -18 l220 0 41 118 c23 64 51 143 63 175 l21 57 320 -2
320 -3 57 -170 57 -170 237 -3 c189 -2 237 0 234 10 -3 7 -144 381 -314 830
l-309 818 -268 0 -267 0 -11 -27z m375 -658 c53 -160 96 -293 96 -298 0 -4
-94 -7 -208 -7 l-209 0 106 305 c58 167 108 301 112 297 4 -4 50 -138 103
-297z"/>
<path d="M17640 8860 l0 -830 220 0 220 0 0 345 0 345 260 0 260 0 0 -345 0
-345 220 0 220 0 0 830 0 830 -220 0 -220 0 0 -320 0 -320 -260 0 -260 0 0
320 0 320 -220 0 -220 0 0 -830z"/>
<path d="M20100 8861 l0 -831 378 0 c477 0 581 12 730 84 81 38 162 123 193
203 33 84 33 253 1 334 -27 68 -88 140 -147 174 -36 22 -61 32 -155 61 -8 3
10 15 44 29 168 68 242 179 240 360 -3 203 -107 325 -331 387 -73 20 -106 22
-515 26 l-438 4 0 -831z m734 508 c120 -41 153 -190 62 -276 -47 -43 -90 -54
-238 -60 l-128 -5 0 182 0 182 133 -5 c72 -3 149 -11 171 -18z m48 -668 c66
-32 91 -71 96 -146 10 -154 -84 -215 -330 -215 l-118 0 0 196 0 196 153 -4
c134 -3 158 -6 199 -27z"/>
<path d="M21690 8860 l0 -830 220 0 220 0 0 830 0 830 -220 0 -220 0 0 -830z"/>
<path d="M22460 8860 l0 -830 200 0 200 0 0 493 c0 270 -5 537 -10 592 -5 55
-12 125 -15 155 -6 54 -5 54 28 -40 18 -52 154 -344 302 -648 l268 -552 274 0
273 0 0 830 0 830 -201 0 -201 0 5 -557 c3 -338 9 -586 16 -628 6 -38 13 -86
16 -105 3 -19 -17 26 -43 100 -30 86 -141 328 -302 662 l-255 528 -277 0 -278
0 0 -830z"/>
<path d="M24300 8860 l0 -830 555 0 555 0 0 165 0 165 -335 0 -335 0 0 665 0
665 -220 0 -220 0 0 -830z"/>
<path d="M26039 9663 c-6 -16 -145 -381 -309 -813 -164 -432 -301 -793 -305
-802 -7 -17 7 -18 213 -18 l220 0 41 118 c23 64 51 143 63 175 l21 57 320 -2
320 -3 57 -170 57 -170 237 -3 c189 -2 237 0 234 10 -3 7 -144 381 -314 830
l-309 818 -268 0 -267 0 -11 -27z m375 -658 c53 -160 96 -293 96 -298 0 -4
-94 -7 -208 -7 l-209 0 106 305 c58 167 108 301 112 297 4 -4 50 -138 103
-297z"/>
<path d="M27090 9525 l0 -165 205 0 205 0 0 -665 0 -665 220 0 220 0 0 665 0
665 210 0 210 0 0 165 0 165 -635 0 -635 0 0 -165z"/>
<path d="M14810 7045 l0 -365 45 0 c39 0 45 3 45 20 0 20 1 20 31 -2 41 -30
160 -38 208 -14 75 39 117 143 109 275 -9 147 -69 219 -190 228 -53 4 -71 1
-110 -20 l-48 -24 0 133 0 134 -45 0 -45 0 0 -365z m298 42 c55 -51 67 -206
22 -286 -45 -79 -115 -90 -176 -26 -71 76 -70 238 2 310 49 50 100 51 152 2z"/>
<path d="M19190 7274 l0 -136 -35 22 c-19 12 -59 24 -88 27 -97 10 -164 -27
-203 -111 -34 -73 -34 -218 0 -291 25 -54 72 -101 112 -111 50 -13 148 1 182
25 32 22 32 22 32 2 0 -18 6 -21 40 -21 l40 0 0 365 0 365 -40 0 -40 0 0 -136z
m-81 -173 c40 -28 60 -63 71 -122 25 -134 -55 -267 -146 -245 -66 17 -104 92
-103 201 1 91 29 151 85 180 32 16 56 13 93 -14z"/>
<path d="M22460 7045 l0 -365 45 0 45 0 0 365 0 365 -45 0 -45 0 0 -365z"/>
<path d="M24260 7045 l0 -365 45 0 45 0 0 143 c1 203 16 252 93 290 34 17 38
17 71 2 56 -27 66 -66 66 -265 l0 -170 46 0 46 0 -4 198 c-3 216 -9 240 -71
286 -41 31 -157 30 -209 -1 l-38 -22 0 134 0 135 -45 0 -45 0 0 -365z"/>
<path d="M15500 7355 l0 -45 45 0 45 0 0 45 0 45 -45 0 -45 0 0 -45z"/>
<path d="M23900 7355 l0 -45 45 0 45 0 0 45 0 45 -45 0 -45 0 0 -45z"/>
<path d="M12680 7020 l0 -340 45 0 45 0 0 145 0 145 69 0 c152 0 230 67 231
198 0 67 -19 113 -62 145 -45 35 -103 46 -225 47 l-103 0 0 -340z m220 258
c140 -71 79 -248 -85 -248 l-45 0 0 135 0 135 43 0 c24 0 62 -10 87 -22z"/>
<path d="M21270 7020 l0 -340 45 0 45 0 0 145 0 145 69 0 c152 0 230 67 231
198 0 67 -19 113 -62 145 -45 35 -103 46 -225 47 l-103 0 0 -340z m220 258
c140 -71 79 -248 -85 -248 l-45 0 0 135 0 135 43 0 c24 0 62 -10 87 -22z"/>
<path d="M23508 7298 c-26 -9 -28 -13 -28 -69 l0 -59 -50 0 c-49 0 -50 -1 -50
-30 0 -29 1 -30 50 -30 l50 0 0 -167 c0 -250 11 -273 132 -273 l68 0 0 35 c0
35 -1 36 -34 30 -27 -6 -39 -2 -55 14 -20 20 -21 32 -21 191 l0 170 55 0 c54
0 55 0 55 30 0 30 -1 30 -55 30 l-55 0 0 70 c0 76 -4 80 -62 58z"/>
<path d="M13370 7178 c-47 -13 -106 -72 -127 -127 -26 -67 -23 -191 6 -256 28
-63 46 -83 96 -106 46 -21 182 -26 234 -8 27 9 31 16 31 45 0 39 -15 43 -73
19 -68 -28 -126 -15 -176 39 -23 24 -53 113 -44 129 2 4 78 7 169 7 l164 0 0
41 c0 103 -56 199 -128 219 -45 12 -105 12 -152 -2z m144 -86 c22 -20 46 -73
46 -102 0 -19 -6 -20 -120 -20 -130 0 -131 0 -109 57 24 64 93 109 139 91 14
-5 33 -17 44 -26z"/>
<path d="M14016 7180 c-15 -5 -37 -17 -47 -26 -17 -16 -19 -16 -19 -1 0 13
-10 17 -45 17 l-45 0 0 -245 0 -245 45 0 45 0 0 153 c1 195 17 244 93 284 25
13 31 12 60 -4 48 -28 56 -65 56 -260 l1 -173 45 0 45 0 0 163 c0 149 2 167
23 207 28 57 81 87 120 69 49 -22 60 -67 65 -261 l4 -178 40 0 39 0 -3 209
c-3 193 -5 212 -24 238 -56 77 -184 85 -256 16 l-27 -26 -30 30 c-41 41 -114
54 -185 33z"/>
<path d="M16017 7176 c-20 -7 -44 -19 -52 -26 -12 -10 -15 -9 -15 4 0 12 -10
16 -45 16 l-45 0 0 -245 0 -245 45 0 45 0 0 143 c1 203 16 252 93 290 34 17
38 17 71 2 56 -27 66 -66 66 -265 l0 -170 46 0 46 0 -4 198 c-3 216 -9 240
-70 285 -35 26 -128 33 -181 13z"/>
<path d="M16645 7184 c-81 -21 -85 -24 -85 -65 0 -43 7 -46 52 -23 103 53 177
21 189 -81 l4 -30 -74 -7 c-113 -10 -156 -25 -197 -71 -35 -38 -36 -42 -32
-104 3 -56 8 -68 36 -96 30 -30 37 -32 115 -35 74 -3 85 -1 120 22 35 24 37
24 37 6 0 -17 7 -20 40 -20 l40 0 0 190 c0 212 -9 254 -62 292 -30 21 -136 34
-183 22z m155 -309 c0 -57 -22 -100 -63 -125 -46 -28 -83 -25 -118 9 -73 73 1
156 144 160 l37 1 0 -45z"/>
<path d="M17265 7184 c-81 -21 -85 -24 -85 -65 0 -43 7 -46 52 -23 103 53 177
21 189 -81 l4 -30 -74 -7 c-113 -10 -156 -25 -197 -71 -35 -38 -36 -42 -32
-104 3 -56 8 -68 36 -96 30 -30 37 -32 115 -35 74 -3 85 -1 120 22 35 24 37
24 37 6 0 -17 7 -20 40 -20 l40 0 0 190 c0 212 -9 254 -62 292 -30 21 -136 34
-183 22z m155 -309 c0 -57 -22 -100 -63 -125 -46 -28 -83 -25 -118 9 -73 73 1
156 144 160 l37 1 0 -45z"/>
<path d="M17937 7176 c-20 -7 -44 -19 -52 -26 -12 -10 -15 -9 -15 4 0 12 -10
16 -45 16 l-45 0 0 -245 0 -245 45 0 45 0 0 143 c1 203 16 252 93 290 34 17
38 17 71 2 56 -27 66 -66 66 -265 l0 -170 46 0 46 0 -4 198 c-3 216 -9 240
-70 285 -35 26 -128 33 -181 13z"/>
<path d="M19655 7184 c-81 -21 -85 -24 -85 -65 0 -43 7 -46 52 -23 103 53 177
21 189 -81 l4 -30 -74 -7 c-113 -10 -156 -25 -197 -71 -35 -38 -36 -42 -32
-104 3 -56 8 -68 36 -96 30 -30 37 -32 115 -35 74 -3 85 -1 120 22 35 24 37
24 37 6 0 -17 7 -20 40 -20 l40 0 0 190 c0 212 -9 254 -62 292 -30 21 -136 34
-183 22z m155 -309 c0 -57 -22 -100 -63 -125 -46 -28 -83 -25 -118 9 -73 73 1
156 144 160 l37 1 0 -45z"/>
<path d="M20327 7176 c-20 -7 -44 -19 -52 -26 -12 -10 -15 -9 -15 4 0 12 -10
16 -45 16 l-45 0 0 -245 0 -245 45 0 45 0 0 143 c1 203 16 252 93 290 34 17
38 17 71 2 56 -27 66 -66 66 -265 l0 -170 46 0 46 0 -4 198 c-3 216 -9 240
-70 285 -35 26 -128 33 -181 13z"/>
<path d="M21960 7178 c-47 -13 -106 -72 -127 -127 -26 -67 -23 -191 6 -256 28
-63 46 -83 96 -106 46 -21 182 -26 234 -8 27 9 31 16 31 45 0 39 -15 43 -73
19 -68 -28 -126 -15 -176 39 -23 24 -53 113 -44 129 2 4 78 7 169 7 l164 0 0
41 c0 103 -56 199 -128 219 -45 12 -105 12 -152 -2z m144 -86 c22 -20 46 -73
46 -102 0 -19 -6 -20 -120 -20 -130 0 -131 0 -109 57 24 64 93 109 139 91 14
-5 33 -17 44 -26z"/>
<path d="M22925 7184 c-81 -21 -85 -24 -85 -65 0 -43 7 -46 52 -23 103 53 177
21 189 -81 l4 -30 -74 -7 c-113 -10 -156 -25 -197 -71 -35 -38 -36 -42 -32
-104 3 -56 8 -68 36 -96 30 -30 37 -32 115 -35 74 -3 85 -1 120 22 35 24 37
24 37 6 0 -17 7 -20 40 -20 l40 0 0 190 c0 212 -9 254 -62 292 -30 21 -136 34
-183 22z m155 -309 c0 -57 -22 -100 -63 -125 -46 -28 -83 -25 -118 9 -73 73 1
156 144 160 l37 1 0 -45z"/>
<path d="M25045 7184 c-81 -21 -85 -24 -85 -65 0 -43 7 -46 52 -23 103 53 177
21 189 -81 l4 -30 -74 -7 c-113 -10 -156 -25 -197 -71 -35 -38 -36 -42 -32
-104 3 -56 8 -68 36 -96 30 -30 37 -32 115 -35 74 -3 85 -1 120 22 35 24 37
24 37 6 0 -17 7 -20 40 -20 l40 0 0 190 c0 212 -9 254 -62 292 -30 21 -136 34
-183 22z m155 -309 c0 -57 -22 -100 -63 -125 -46 -28 -83 -25 -118 9 -73 73 1
156 144 160 l37 1 0 -45z"/>
<path d="M25717 7176 c-20 -7 -44 -19 -52 -26 -12 -10 -15 -9 -15 4 0 12 -10
16 -45 16 l-45 0 0 -245 0 -245 45 0 45 0 0 143 c1 203 16 252 93 290 34 17
38 17 71 2 56 -27 66 -66 66 -265 l0 -170 46 0 46 0 -4 198 c-3 216 -9 240
-70 285 -35 26 -128 33 -181 13z"/>
<path d="M15500 6925 l0 -245 45 0 45 0 0 245 0 245 -45 0 -45 0 0 -245z"/>
<path d="M23900 6925 l0 -245 45 0 45 0 0 245 0 245 -45 0 -45 0 0 -245z"/>
</g>
</svg>
