<?xml version="1.0" standalone="no"?>
<!DOCTYPE svg PUBLIC "-//W3C//DTD SVG 1.0//EN" "http://www.w3.org/TR/2001/REC-SVG-20010904/DTD/svg10.dtd">
<svg xmlns="http://www.w3.org/2000/svg" xmlns:xlink="http://www.w3.org/1999/xlink" id="body_1" width="15999" height="12000">

<g transform="matrix(3.99975 0 0 3.99975 -0 0.74995315)">
	<g transform="matrix(0.1 0 -0 -0.1 0 3000)">
        <path d="M19310 23288L19310 22324L21357 20535C 22483 19550 24087 18147 24923 17417C 25759 16686 26438 16085 26434 16080C 26429 16076 26092 15909 25686 15709L25686 15709L24946 15345L26077 15342C 26699 15341 27720 15341 28346 15342L28346 15342L29483 15345L26914 17596C 20214 23466 19332 24238 19321 24244C 19313 24249 19310 24005 19310 23288z" stroke="none" fill="#000000" fill-rule="nonzero" />
        <path d="M19555 18055C 19670 17986 19774 17904 19892 17791C 20258 17440 20518 16974 20670 16393L20670 16393L20681 16350L21783 16350C 22694 16350 22894 16347 22937 16336C 23142 16281 23260 16124 23260 15905C 23260 15623 23191 15490 23010 15424C 22969 15410 22854 15408 21812 15410L21812 15410L20658 15411L20666 15378C 20679 15319 20673 15039 20656 14928C 20604 14591 20467 14279 20250 14006C 20217 13965 20190 13928 20190 13925C 20190 13922 20804 13920 21554 13920C 22570 13921 22929 13918 22961 13910C 23150 13859 23253 13722 23267 13504C 23285 13222 23159 13021 22918 12945L22918 12945L22838 12920L21358 12920C 20106 12920 19880 12918 19887 12906C 19891 12899 20176 12503 20520 12026L20520 12026L21145 11160L22115 11160C 22717 11160 23118 11164 23170 11170C 23421 11201 23667 11275 23889 11387C 24077 11481 24197 11567 24340 11710C 24479 11849 24568 11972 24654 12145C 24810 12456 24872 12754 24874 13195C 24875 13497 24854 13652 24779 13887C 24687 14174 24511 14427 24300 14576C 24234 14623 24047 14719 24020 14720C 24012 14721 24037 14737 24075 14757C 24341 14893 24541 15187 24645 15596C 24690 15770 24717 15962 24731 16198C 24765 16764 24639 17170 24330 17494C 24045 17793 23649 17979 23108 18067C 23015 18083 22841 18084 21250 18087L21250 18087L19495 18091L19555 18055z" stroke="none" fill="#000000" fill-rule="nonzero" />
        <path d="M13740 13857L13740 11130L15451 11130C 16816 11130 17161 11133 17157 11143C 17153 11154 13752 16570 13744 16579C 13742 16581 13740 15356 13740 13857z" stroke="none" fill="#000000" fill-rule="nonzero" />
        <path d="M10280 8861L10280 8030L10495 8030L10710 8030L10710 8356L10710 8683L10803 8677C 10914 8670 10957 8654 11004 8599C 11039 8557 11041 8551 11205 8043C 11208 8033 11264 8030 11440 8030C 11566 8030 11670 8032 11670 8033C 11670 8041 11468 8598 11448 8645C 11415 8725 11360 8801 11313 8831L11313 8831L11269 8858L11307 8870C 11491 8930 11590 9066 11590 9260C 11590 9473 11480 9599 11238 9662C 11161 9682 11125 9683 10718 9687L10718 9687L10280 9692L10280 8861zM10973 9375C 11087 9351 11140 9304 11155 9214C 11169 9123 11111 9026 11025 9000C 11003 8993 10923 8985 10848 8983L10848 8983L10710 8978L10710 9184L10710 9390L10808 9390C 10861 9390 10936 9383 10973 9375z" stroke="none" fill="#000000" fill-rule="nonzero" />
        <path d="M11840 9228C 11841 8584 11850 8480 11924 8325C 11970 8228 12026 8161 12107 8107C 12236 8022 12406 7983 12609 7993C 12951 8010 13143 8147 13231 8440C 13254 8514 13254 8525 13258 9103L13258 9103L13261 9690L13051 9690L12841 9690L12838 9128C 12835 8568 12835 8565 12812 8509C 12764 8388 12698 8335 12587 8323C 12475 8312 12383 8356 12339 8443C 12294 8530 12290 8583 12290 9153L12290 9153L12290 9690L12065 9690L11840 9690L11840 9228z" stroke="none" fill="#000000" fill-rule="nonzero" />
        <path d="M13580 8860L13580 8030L13776 8030L13972 8030L13968 8720C 13965 9390 13965 9407 13982 9337C 13992 9297 14086 8987 14192 8647L14192 8647L14384 8030L14584 8032L14784 8035L14977 8650C 15084 8988 15181 9303 15193 9350L15193 9350L15215 9435L15212 8733L15209 8030L15419 8030L15630 8030L15630 8860L15630 9690L15294 9688L14958 9685L14839 9300C 14655 8703 14640 8649 14620 8533C 14610 8474 14602 8439 14601 8456C 14598 8546 14555 8711 14413 9177L14413 9177L14257 9690L13918 9690L13580 9690L13580 8860zM13957 9428C 13954 9420 13951 9423 13951 9434C 13950 9445 13953 9451 13956 9447C 13959 9444 13960 9435 13957 9428z" stroke="none" fill="#000000" fill-rule="nonzero" />
        <path d="M16369 9663C 16363 9647 16224 9282 16060 8850C 15896 8418 15759 8057 15755 8048C 15748 8031 15762 8030 15968 8030L15968 8030L16188 8030L16229 8148C 16252 8212 16280 8291 16292 8323L16292 8323L16313 8380L16633 8378L16953 8375L17010 8205L17067 8035L17304 8032C 17493 8030 17541 8032 17538 8042C 17535 8049 17394 8423 17224 8872L17224 8872L16915 9690L16647 9690L16380 9690L16369 9663zM16744 9005C 16797 8845 16840 8712 16840 8707C 16840 8703 16746 8700 16632 8700L16632 8700L16423 8700L16529 9005C 16587 9172 16637 9306 16641 9302C 16645 9298 16691 9164 16744 9005z" stroke="none" fill="#000000" fill-rule="nonzero" />
        <path d="M17640 8860L17640 8030L17860 8030L18080 8030L18080 8375L18080 8720L18340 8720L18600 8720L18600 8375L18600 8030L18820 8030L19040 8030L19040 8860L19040 9690L18820 9690L18600 9690L18600 9370L18600 9050L18340 9050L18080 9050L18080 9370L18080 9690L17860 9690L17640 9690L17640 8860z" stroke="none" fill="#000000" fill-rule="nonzero" />
        <path d="M20100 8861L20100 8030L20478 8030C 20955 8030 21059 8042 21208 8114C 21289 8152 21370 8237 21401 8317C 21434 8401 21434 8570 21402 8651C 21375 8719 21314 8791 21255 8825C 21219 8847 21194 8857 21100 8886C 21092 8889 21110 8901 21144 8915C 21312 8983 21386 9094 21384 9275C 21381 9478 21277 9600 21053 9662C 20980 9682 20947 9684 20538 9688L20538 9688L20100 9692L20100 8861zM20834 9369C 20954 9328 20987 9179 20896 9093C 20849 9050 20806 9039 20658 9033L20658 9033L20530 9028L20530 9210L20530 9392L20663 9387C 20735 9384 20812 9376 20834 9369zM20882 8701C 20948 8669 20973 8630 20978 8555C 20988 8401 20894 8340 20648 8340L20648 8340L20530 8340L20530 8536L20530 8732L20683 8728C 20817 8725 20841 8722 20882 8701z" stroke="none" fill="#000000" fill-rule="nonzero" />
        <path d="M21690 8860L21690 8030L21910 8030L22130 8030L22130 8860L22130 9690L21910 9690L21690 9690L21690 8860z" stroke="none" fill="#000000" fill-rule="nonzero" />
        <path d="M22460 8860L22460 8030L22660 8030L22860 8030L22860 8523C 22860 8793 22855 9060 22850 9115C 22845 9170 22838 9240 22835 9270C 22829 9324 22830 9324 22863 9230C 22881 9178 23017 8886 23165 8582L23165 8582L23433 8030L23707 8030L23980 8030L23980 8860L23980 9690L23779 9690L23578 9690L23583 9133C 23586 8795 23592 8547 23599 8505C 23605 8467 23612 8419 23615 8400C 23618 8381 23598 8426 23572 8500C 23542 8586 23431 8828 23270 9162L23270 9162L23015 9690L22738 9690L22460 9690L22460 8860z" stroke="none" fill="#000000" fill-rule="nonzero" />
        <path d="M24300 8860L24300 8030L24855 8030L25410 8030L25410 8195L25410 8360L25075 8360L24740 8360L24740 9025L24740 9690L24520 9690L24300 9690L24300 8860z" stroke="none" fill="#000000" fill-rule="nonzero" />
        <path d="M26039 9663C 26033 9647 25894 9282 25730 8850C 25566 8418 25429 8057 25425 8048C 25418 8031 25432 8030 25638 8030L25638 8030L25858 8030L25899 8148C 25922 8212 25950 8291 25962 8323L25962 8323L25983 8380L26303 8378L26623 8375L26680 8205L26737 8035L26974 8032C 27163 8030 27211 8032 27208 8042C 27205 8049 27064 8423 26894 8872L26894 8872L26585 9690L26317 9690L26050 9690L26039 9663zM26414 9005C 26467 8845 26510 8712 26510 8707C 26510 8703 26416 8700 26302 8700L26302 8700L26093 8700L26199 9005C 26257 9172 26307 9306 26311 9302C 26315 9298 26361 9164 26414 9005z" stroke="none" fill="#000000" fill-rule="nonzero" />
        <path d="M27090 9525L27090 9360L27295 9360L27500 9360L27500 8695L27500 8030L27720 8030L27940 8030L27940 8695L27940 9360L28150 9360L28360 9360L28360 9525L28360 9690L27725 9690L27090 9690L27090 9525z" stroke="none" fill="#000000" fill-rule="nonzero" />
        <path d="M14810 7045L14810 6680L14855 6680C 14894 6680 14900 6683 14900 6700C 14900 6720 14901 6720 14931 6698C 14972 6668 15091 6660 15139 6684C 15214 6723 15256 6827 15248 6959C 15239 7106 15179 7178 15058 7187C 15005 7191 14987 7188 14948 7167L14948 7167L14900 7143L14900 7276L14900 7410L14855 7410L14810 7410L14810 7045zM15108 7087C 15163 7036 15175 6881 15130 6801C 15085 6722 15015 6711 14954 6775C 14883 6851 14884 7013 14956 7085C 15005 7135 15056 7136 15108 7087z" stroke="none" fill="#000000" fill-rule="nonzero" />
        <path d="M19190 7274L19190 7138L19155 7160C 19136 7172 19096 7184 19067 7187C 18970 7197 18903 7160 18864 7076C 18830 7003 18830 6858 18864 6785C 18889 6731 18936 6684 18976 6674C 19026 6661 19124 6675 19158 6699C 19190 6721 19190 6721 19190 6701C 19190 6683 19196 6680 19230 6680L19230 6680L19270 6680L19270 7045L19270 7410L19230 7410L19190 7410L19190 7274zM19109 7101C 19149 7073 19169 7038 19180 6979C 19205 6845 19125 6712 19034 6734C 18968 6751 18930 6826 18931 6935C 18932 7026 18960 7086 19016 7115C 19048 7131 19072 7128 19109 7101z" stroke="none" fill="#000000" fill-rule="nonzero" />
        <path d="M22460 7045L22460 6680L22505 6680L22550 6680L22550 7045L22550 7410L22505 7410L22460 7410L22460 7045z" stroke="none" fill="#000000" fill-rule="nonzero" />
        <path d="M24260 7045L24260 6680L24305 6680L24350 6680L24350 6823C 24351 7026 24366 7075 24443 7113C 24477 7130 24481 7130 24514 7115C 24570 7088 24580 7049 24580 6850L24580 6850L24580 6680L24626 6680L24672 6680L24668 6878C 24665 7094 24659 7118 24597 7164C 24556 7195 24440 7194 24388 7163L24388 7163L24350 7141L24350 7275L24350 7410L24305 7410L24260 7410L24260 7045z" stroke="none" fill="#000000" fill-rule="nonzero" />
        <path d="M15500 7355L15500 7310L15545 7310L15590 7310L15590 7355L15590 7400L15545 7400L15500 7400L15500 7355z" stroke="none" fill="#000000" fill-rule="nonzero" />
        <path d="M23900 7355L23900 7310L23945 7310L23990 7310L23990 7355L23990 7400L23945 7400L23900 7400L23900 7355z" stroke="none" fill="#000000" fill-rule="nonzero" />
        <path d="M12680 7020L12680 6680L12725 6680L12770 6680L12770 6825L12770 6970L12839 6970C 12991 6970 13069 7037 13070 7168C 13070 7235 13051 7281 13008 7313C 12963 7348 12905 7359 12783 7360L12783 7360L12680 7360L12680 7020zM12900 7278C 13040 7207 12979 7030 12815 7030L12815 7030L12770 7030L12770 7165L12770 7300L12813 7300C 12837 7300 12875 7290 12900 7278z" stroke="none" fill="#000000" fill-rule="nonzero" />
        <path d="M21270 7020L21270 6680L21315 6680L21360 6680L21360 6825L21360 6970L21429 6970C 21581 6970 21659 7037 21660 7168C 21660 7235 21641 7281 21598 7313C 21553 7348 21495 7359 21373 7360L21373 7360L21270 7360L21270 7020zM21490 7278C 21630 7207 21569 7030 21405 7030L21405 7030L21360 7030L21360 7165L21360 7300L21403 7300C 21427 7300 21465 7290 21490 7278z" stroke="none" fill="#000000" fill-rule="nonzero" />
        <path d="M23508 7298C 23482 7289 23480 7285 23480 7229L23480 7229L23480 7170L23430 7170C 23381 7170 23380 7169 23380 7140C 23380 7111 23381 7110 23430 7110L23430 7110L23480 7110L23480 6943C 23480 6693 23491 6670 23612 6670L23612 6670L23680 6670L23680 6705C 23680 6740 23679 6741 23646 6735C 23619 6729 23607 6733 23591 6749C 23571 6769 23570 6781 23570 6940L23570 6940L23570 7110L23625 7110C 23679 7110 23680 7110 23680 7140C 23680 7170 23679 7170 23625 7170L23625 7170L23570 7170L23570 7240C 23570 7316 23566 7320 23508 7298z" stroke="none" fill="#000000" fill-rule="nonzero" />
        <path d="M13370 7178C 13323 7165 13264 7106 13243 7051C 13217 6984 13220 6860 13249 6795C 13277 6732 13295 6712 13345 6689C 13391 6668 13527 6663 13579 6681C 13606 6690 13610 6697 13610 6726C 13610 6765 13595 6769 13537 6745C 13469 6717 13411 6730 13361 6784C 13338 6808 13308 6897 13317 6913C 13319 6917 13395 6920 13486 6920L13486 6920L13650 6920L13650 6961C 13650 7064 13594 7160 13522 7180C 13477 7192 13417 7192 13370 7178zM13514 7092C 13536 7072 13560 7019 13560 6990C 13560 6971 13554 6970 13440 6970C 13310 6970 13309 6970 13331 7027C 13355 7091 13424 7136 13470 7118C 13484 7113 13503 7101 13514 7092z" stroke="none" fill="#000000" fill-rule="nonzero" />
        <path d="M14016 7180C 14001 7175 13979 7163 13969 7154C 13952 7138 13950 7138 13950 7153C 13950 7166 13940 7170 13905 7170L13905 7170L13860 7170L13860 6925L13860 6680L13905 6680L13950 6680L13950 6833C 13951 7028 13967 7077 14043 7117C 14068 7130 14074 7129 14103 7113C 14151 7085 14159 7048 14159 6853L14159 6853L14160 6680L14205 6680L14250 6680L14250 6843C 14250 6992 14252 7010 14273 7050C 14301 7107 14354 7137 14393 7119C 14442 7097 14453 7052 14458 6858L14458 6858L14462 6680L14502 6680L14541 6680L14538 6889C 14535 7082 14533 7101 14514 7127C 14458 7204 14330 7212 14258 7143L14258 7143L14231 7117L14201 7147C 14160 7188 14087 7201 14016 7180z" stroke="none" fill="#000000" fill-rule="nonzero" />
        <path d="M16017 7176C 15997 7169 15973 7157 15965 7150C 15953 7140 15950 7141 15950 7154C 15950 7166 15940 7170 15905 7170L15905 7170L15860 7170L15860 6925L15860 6680L15905 6680L15950 6680L15950 6823C 15951 7026 15966 7075 16043 7113C 16077 7130 16081 7130 16114 7115C 16170 7088 16180 7049 16180 6850L16180 6850L16180 6680L16226 6680L16272 6680L16268 6878C 16265 7094 16259 7118 16198 7163C 16163 7189 16070 7196 16017 7176z" stroke="none" fill="#000000" fill-rule="nonzero" />
        <path d="M16645 7184C 16564 7163 16560 7160 16560 7119C 16560 7076 16567 7073 16612 7096C 16715 7149 16789 7117 16801 7015L16801 7015L16805 6985L16731 6978C 16618 6968 16575 6953 16534 6907C 16499 6869 16498 6865 16502 6803C 16505 6747 16510 6735 16538 6707C 16568 6677 16575 6675 16653 6672C 16727 6669 16738 6671 16773 6694C 16808 6718 16810 6718 16810 6700C 16810 6683 16817 6680 16850 6680L16850 6680L16890 6680L16890 6870C 16890 7082 16881 7124 16828 7162C 16798 7183 16692 7196 16645 7184zM16800 6875C 16800 6818 16778 6775 16737 6750C 16691 6722 16654 6725 16619 6759C 16546 6832 16620 6915 16763 6919L16763 6919L16800 6920L16800 6875z" stroke="none" fill="#000000" fill-rule="nonzero" />
        <path d="M17265 7184C 17184 7163 17180 7160 17180 7119C 17180 7076 17187 7073 17232 7096C 17335 7149 17409 7117 17421 7015L17421 7015L17425 6985L17351 6978C 17238 6968 17195 6953 17154 6907C 17119 6869 17118 6865 17122 6803C 17125 6747 17130 6735 17158 6707C 17188 6677 17195 6675 17273 6672C 17347 6669 17358 6671 17393 6694C 17428 6718 17430 6718 17430 6700C 17430 6683 17437 6680 17470 6680L17470 6680L17510 6680L17510 6870C 17510 7082 17501 7124 17448 7162C 17418 7183 17312 7196 17265 7184zM17420 6875C 17420 6818 17398 6775 17357 6750C 17311 6722 17274 6725 17239 6759C 17166 6832 17240 6915 17383 6919L17383 6919L17420 6920L17420 6875z" stroke="none" fill="#000000" fill-rule="nonzero" />
        <path d="M17937 7176C 17917 7169 17893 7157 17885 7150C 17873 7140 17870 7141 17870 7154C 17870 7166 17860 7170 17825 7170L17825 7170L17780 7170L17780 6925L17780 6680L17825 6680L17870 6680L17870 6823C 17871 7026 17886 7075 17963 7113C 17997 7130 18001 7130 18034 7115C 18090 7088 18100 7049 18100 6850L18100 6850L18100 6680L18146 6680L18192 6680L18188 6878C 18185 7094 18179 7118 18118 7163C 18083 7189 17990 7196 17937 7176z" stroke="none" fill="#000000" fill-rule="nonzero" />
        <path d="M19655 7184C 19574 7163 19570 7160 19570 7119C 19570 7076 19577 7073 19622 7096C 19725 7149 19799 7117 19811 7015L19811 7015L19815 6985L19741 6978C 19628 6968 19585 6953 19544 6907C 19509 6869 19508 6865 19512 6803C 19515 6747 19520 6735 19548 6707C 19578 6677 19585 6675 19663 6672C 19737 6669 19748 6671 19783 6694C 19818 6718 19820 6718 19820 6700C 19820 6683 19827 6680 19860 6680L19860 6680L19900 6680L19900 6870C 19900 7082 19891 7124 19838 7162C 19808 7183 19702 7196 19655 7184zM19810 6875C 19810 6818 19788 6775 19747 6750C 19701 6722 19664 6725 19629 6759C 19556 6832 19630 6915 19773 6919L19773 6919L19810 6920L19810 6875z" stroke="none" fill="#000000" fill-rule="nonzero" />
        <path d="M20327 7176C 20307 7169 20283 7157 20275 7150C 20263 7140 20260 7141 20260 7154C 20260 7166 20250 7170 20215 7170L20215 7170L20170 7170L20170 6925L20170 6680L20215 6680L20260 6680L20260 6823C 20261 7026 20276 7075 20353 7113C 20387 7130 20391 7130 20424 7115C 20480 7088 20490 7049 20490 6850L20490 6850L20490 6680L20536 6680L20582 6680L20578 6878C 20575 7094 20569 7118 20508 7163C 20473 7189 20380 7196 20327 7176z" stroke="none" fill="#000000" fill-rule="nonzero" />
        <path d="M21960 7178C 21913 7165 21854 7106 21833 7051C 21807 6984 21810 6860 21839 6795C 21867 6732 21885 6712 21935 6689C 21981 6668 22117 6663 22169 6681C 22196 6690 22200 6697 22200 6726C 22200 6765 22185 6769 22127 6745C 22059 6717 22001 6730 21951 6784C 21928 6808 21898 6897 21907 6913C 21909 6917 21985 6920 22076 6920L22076 6920L22240 6920L22240 6961C 22240 7064 22184 7160 22112 7180C 22067 7192 22007 7192 21960 7178zM22104 7092C 22126 7072 22150 7019 22150 6990C 22150 6971 22144 6970 22030 6970C 21900 6970 21899 6970 21921 7027C 21945 7091 22014 7136 22060 7118C 22074 7113 22093 7101 22104 7092z" stroke="none" fill="#000000" fill-rule="nonzero" />
        <path d="M22925 7184C 22844 7163 22840 7160 22840 7119C 22840 7076 22847 7073 22892 7096C 22995 7149 23069 7117 23081 7015L23081 7015L23085 6985L23011 6978C 22898 6968 22855 6953 22814 6907C 22779 6869 22778 6865 22782 6803C 22785 6747 22790 6735 22818 6707C 22848 6677 22855 6675 22933 6672C 23007 6669 23018 6671 23053 6694C 23088 6718 23090 6718 23090 6700C 23090 6683 23097 6680 23130 6680L23130 6680L23170 6680L23170 6870C 23170 7082 23161 7124 23108 7162C 23078 7183 22972 7196 22925 7184zM23080 6875C 23080 6818 23058 6775 23017 6750C 22971 6722 22934 6725 22899 6759C 22826 6832 22900 6915 23043 6919L23043 6919L23080 6920L23080 6875z" stroke="none" fill="#000000" fill-rule="nonzero" />
        <path d="M25045 7184C 24964 7163 24960 7160 24960 7119C 24960 7076 24967 7073 25012 7096C 25115 7149 25189 7117 25201 7015L25201 7015L25205 6985L25131 6978C 25018 6968 24975 6953 24934 6907C 24899 6869 24898 6865 24902 6803C 24905 6747 24910 6735 24938 6707C 24968 6677 24975 6675 25053 6672C 25127 6669 25138 6671 25173 6694C 25208 6718 25210 6718 25210 6700C 25210 6683 25217 6680 25250 6680L25250 6680L25290 6680L25290 6870C 25290 7082 25281 7124 25228 7162C 25198 7183 25092 7196 25045 7184zM25200 6875C 25200 6818 25178 6775 25137 6750C 25091 6722 25054 6725 25019 6759C 24946 6832 25020 6915 25163 6919L25163 6919L25200 6920L25200 6875z" stroke="none" fill="#000000" fill-rule="nonzero" />
        <path d="M25717 7176C 25697 7169 25673 7157 25665 7150C 25653 7140 25650 7141 25650 7154C 25650 7166 25640 7170 25605 7170L25605 7170L25560 7170L25560 6925L25560 6680L25605 6680L25650 6680L25650 6823C 25651 7026 25666 7075 25743 7113C 25777 7130 25781 7130 25814 7115C 25870 7088 25880 7049 25880 6850L25880 6850L25880 6680L25926 6680L25972 6680L25968 6878C 25965 7094 25959 7118 25898 7163C 25863 7189 25770 7196 25717 7176z" stroke="none" fill="#000000" fill-rule="nonzero" />
        <path d="M15500 6925L15500 6680L15545 6680L15590 6680L15590 6925L15590 7170L15545 7170L15500 7170L15500 6925z" stroke="none" fill="#000000" fill-rule="nonzero" />
        <path d="M23900 6925L23900 6680L23945 6680L23990 6680L23990 6925L23990 7170L23945 7170L23900 7170L23900 6925z" stroke="none" fill="#000000" fill-rule="nonzero" />
	</g>
</g>
</svg>